# xmcd
# 
# Track frame offsets:
#     150
#     13175
#     25600
#     37857
#     51367
#     63755
#     76270
#     87970
#     100937
#     112865
#     125017
#     137917
#     150342
#     163600
#     176502
#     190047
#     202942
#     216562
#     229747
#     242982
#     254762
#     267365
#     278400
#     290107
#     302287
#     315320
#     327227
# 
# Disc length: 4532
# 
# Revision: 1
# Processed by: cddbd v1.5.2PL0 Copyright (c) Steve Scherf et al.
# Submitted via: fre:ac v1.0.17
# 
DISCID=6f11b21b
DTITLE=Johnnie and Jack and The Tennessee Mountain Boys - Johnnie and Jack and the Tennessee Mountain Boys Vol 1
DYEAR=0
DGENRE=Country
TTITLE0=Lord Watch O'er My Daddy
TTITLE1=There's No Housing Shortage In Heaven
TTITLE2=Love In The First Degree
TTITLE3=Too Many Blues
TTITLE4=This Is The End
TTITLE5=Paperboy
TTITLE6=Sing Tom Kitty
TTITLE7=Jole Blon
TTITLE8=I'll Be Listening
TTITLE9=This World Can't Stand Long
TTITLE10=The Old Country Church
TTITLE11=I Heard My Name On The Radio
TTITLE12=Turn Your Radio On
TTITLE13=He Will Set Your Fields On Fire
TTITLE14=What About You
TTITLE15=For Old Times Sake
TTITLE16=Just When I Needed You
TTITLE17=She Went With A Smile
TTITLE18=Trials And Tribulations
TTITLE19=Buried Alive
TTITLE20=I Heard My Saviour Call
TTITLE21=Pray Together And We'll Stay Together
TTITLE22=Shout
TTITLE23=You Better Get Down On Your Knees And Pray
TTITLE24=Too Much Sinning
TTITLE25=Jesus Hits Like An Atom Bomb
TTITLE26=Too Far From God
EXTD=
EXTT0=
EXTT1=
EXTT2=
EXTT3=
EXTT4=
EXTT5=
EXTT6=
EXTT7=
EXTT8=
EXTT9=
EXTT10=
EXTT11=
EXTT12=
EXTT13=
EXTT14=
EXTT15=
EXTT16=
EXTT17=
EXTT18=
EXTT19=
EXTT20=
EXTT21=
EXTT22=
EXTT23=
EXTT24=
EXTT25=
EXTT26=
PLAYORDER=
